# xmcd
#
# Track frame offsets: 
#        150
#        26638
#        41412
#        59717
#        89508
#        118238
#        127283
#        156056
#        166686
#        185967
#        211757
#        231478
#        264584
#
# Disc length: 3760 seconds
#
# Revision: 0
# Processed by: cddbd v1.5.2PL0 Copyright (c) Steve Scherf et al.
# Submitted via: ExactAudioCopy v0.95b4
#
DISCID=c20eae0d
DTITLE=Разные Люди - Дороги
DYEAR=2008
DGENRE=Rock
TTITLE0=Дороги
TTITLE1=Водка
TTITLE2=Год
TTITLE3=Тепло
TTITLE4=Отторженные
TTITLE5=Пусть Вчера
TTITLE6=Самолёт
TTITLE7=Песня Взрослого Человека
TTITLE8=Narva Suvi
TTITLE9=Я Тебя Так Ждал
TTITLE10=15 Ножевых
TTITLE11=Земляничные Поляны
TTITLE12=Моей Девочке 10 Лет
EXTD=
EXTT0=
EXTT1=
EXTT2=
EXTT3=
EXTT4=
EXTT5=
EXTT6=
EXTT7=
EXTT8=
EXTT9=
EXTT10=
EXTT11=
EXTT12=
PLAYORDER=
